<?xml version="1.0" encoding="utf-8"?>
<!-- Generator: Adobe Illustrator 24.2.0, SVG Export Plug-In . SVG Version: 6.00 Build 0)  -->
<svg version="1.1" id="Layer_1" xmlns="http://www.w3.org/2000/svg" xmlns:xlink="http://www.w3.org/1999/xlink" x="0px" y="0px"
	 viewBox="0 0 41.82 12.62" style="enable-background:new 0 0 41.82 12.62;" xml:space="preserve">
<style type="text/css">
	.st0{fill:#100F0F;}
</style>
<g>
	<g>
		<path class="st0" d="M8.04,0l-0.01,12.6H6.55L1.26,1.89l0,10.71H0L0,0h1.57l5.2,10.5l0-10.5H8.04z"/>
		<path class="st0" d="M11.49,0l7.65,0l0,1.17l-6.39,0l0,4.36l5.42,0l0,1.17l-5.42,0l0,4.74l6.57,0v1.17l-7.83,0L11.49,0z"/>
		<path class="st0" d="M29.7,12.62l-3.35-5.44l-3.42,5.44h-1.35l4.05-6.44L21.8,0.01h1.39l3.15,5.1l3.21-5.09l1.35,0l-3.86,6.12
			l4.05,6.48L29.7,12.62z"/>
		<path class="st0" d="M36.87,1.19l-3.69,0l0-1.17l8.64,0l0,1.17l-3.69,0l0,11.43h-1.26L36.87,1.19z"/>
	</g>
</g>
</svg>
