<?xml version="1.0" encoding="utf-8"?>
<!-- Generator: Adobe Illustrator 24.2.0, SVG Export Plug-In . SVG Version: 6.00 Build 0)  -->
<svg version="1.1" id="Layer_1" xmlns="http://www.w3.org/2000/svg" xmlns:xlink="http://www.w3.org/1999/xlink" x="0px" y="0px"
	 viewBox="0 0 41.79 12.62" style="enable-background:new 0 0 41.79 12.62;" xml:space="preserve">
<style type="text/css">
	.st0{fill:#100F0F;}
</style>
<g>
	<g>
		<path class="st0" d="M0,0l4.12,0c2.23,0,3.83,1.33,3.83,3.73c0,2.38-1.69,3.69-3.89,3.69l-2.81,0l0,5.19H0L0,0z M3.84,6.25
			c1.82,0,2.86-0.84,2.86-2.52c0-1.67-0.99-2.56-2.84-2.56l-2.59,0l0,5.08L3.84,6.25z"/>
		<path class="st0" d="M18.69,12.61h-1.26l0-4.5c0-0.54-0.27-0.81-0.81-0.81l-4.23,0l0,5.31l-1.26,0l0-12.6l3.89,0
			c2.2,0,3.85,1.42,3.85,3.37c0,1.42-0.74,2.54-1.91,3.02h0.13c1.15,0,1.6,0.5,1.6,1.71L18.69,12.61z M14.84,1.18l-2.45,0l0,4.95
			l2.45,0c1.46,0,2.77-1.04,2.77-2.57C17.61,2.06,16.57,1.18,14.84,1.18z"/>
		<path class="st0" d="M22.29,0.01l7.65,0l0,1.17l-6.39,0l0,4.36l5.42,0l0,1.17l-5.42,0l0,4.74l6.57,0v1.17l-7.83,0L22.29,0.01z"/>
		<path class="st0" d="M41.79,0.02l-3.82,12.6l-1.66,0L32.49,0.01l1.33,0l3.31,11.31l3.32-11.3H41.79z"/>
	</g>
</g>
</svg>
